# xmcd
#
# Track frame offsets:
#	150
#	12496
#	24979
#	40150
#	52354
#	65572
#	83069
#	99630
#	112577
#	125354
#	139725
#	151152
#	165032
#	188084
#	206373
#	228516
#	242090
#
# Disc length: 3416 seconds
#
# Revision: 2
# Processed by: cddbd v1.5.2PL0 Copyright (c) Steve Scherf et al.
# Submitted via: audiograbber 1.83.01
#
DISCID=d20d5611
DTITLE=Twitty, Conway - CKC025
DYEAR=1900
DGENRE=Karaoke
TTITLE0=It's Only Make Believe
TTITLE1=Hello Darlin'
TTITLE2=You've Never Been This Far Before
TTITLE3=Lousiana Woman Mississippi Man
TTITLE4=I May Never Get To Heaven
TTITLE5=I Want To Know You Before We Make Love
TTITLE6=I'd Love To Lay You Down
TTITLE7=Tight Fitting Jeans
TTITLE8=After The Fire Is Gone
TTITLE9=Slow Hand
TTITLE10=Desperado Love
TTITLE11=Between Blue Eyes and Jeans
TTITLE12=That's My Job
TTITLE13=Somebody's Needing Somebody
TTITLE14=Red Necking Love making Night
TTITLE15=Happy Birthday Darling
TTITLE16=Linda On My Mind
EXTD=
EXTT0=
EXTT1=
EXTT2=
EXTT3=
EXTT4=
EXTT5=
EXTT6=
EXTT7=
EXTT8=
EXTT9=
EXTT10=
EXTT11=
EXTT12=
EXTT13=
EXTT14=
EXTT15=
EXTT16=
PLAYORDER=
